<svg width="154" height="239" viewBox="0 0 154 239" fill="none" xmlns="http://www.w3.org/2000/svg">
<path d="M144.945 62.9458C143.817 60.1842 142.209 57.7567 140.143 55.6422L92.2884 6.63967C90.0862 4.36865 87.6401 2.68547 84.9585 1.60705C82.2604 0.528636 79.5045 0 76.6907 0C73.8769 0 71.1045 0.549782 68.3485 1.62397C65.5926 2.70239 63.1424 4.38557 61.0393 6.63967L13.1678 55.6379C11.1019 57.7525 9.51113 60.2011 8.4038 62.9416C7.31299 65.7032 6.75932 68.5832 6.75932 71.5774V131.943C6.75932 138.139 11.6638 143.159 17.717 143.159H124.492L135.66 143.167C141.718 143.172 146.63 138.147 146.63 131.952V71.5774C146.63 68.5789 146.077 65.682 144.945 62.9416V62.9458ZM134.289 120.58C134.289 123.401 133.351 125.769 131.475 127.668C129.599 129.567 127.264 130.527 124.492 130.527H28.8399C26.0839 130.527 23.7701 129.567 21.8943 127.668C20.0391 125.769 19.1011 123.396 19.1011 120.58V71.5816C19.1011 70.2283 19.349 68.9553 19.849 67.7627C20.3283 66.5701 21.0348 65.5086 21.9728 64.5528L69.7492 15.6519C71.0136 14.3578 72.2738 13.5373 73.5381 13.1863C74.8025 12.8141 75.852 12.6365 76.6742 12.6365C77.4964 12.6365 78.5129 12.793 79.7566 13.144C80.9796 13.4781 82.2233 14.2816 83.4876 15.5715L90.7762 23.0147L38.6365 76.4408V110.536H114.753V76.4408L85.2849 46.3593L99.5605 31.8873L131.363 64.5528C132.338 65.5128 133.066 66.5701 133.566 67.7627C134.061 68.9596 134.293 70.2283 134.293 71.5816V120.58H134.289ZM76.6949 55.3673L102.411 81.6891V97.9035H50.9783V81.6891L76.6949 55.3673Z" fill="#265C54"/>
<path d="M134.289 71.5815V120.58C134.289 123.401 133.351 125.769 131.475 127.668C129.599 129.567 127.264 130.527 124.492 130.527H28.8399C26.0839 130.527 23.7701 129.567 21.8943 127.668C20.0391 125.769 19.1011 123.396 19.1011 120.58V71.5815C19.1011 70.2282 19.349 68.9553 19.849 67.7627C20.3283 66.5701 21.0348 65.5086 21.9728 64.5528L69.7492 15.6518C71.0136 14.3577 72.2738 13.5373 73.5381 13.1863C74.8025 12.8141 75.852 12.6365 76.6742 12.6365C77.4964 12.6365 78.5129 12.793 79.7566 13.144C80.9796 13.4781 82.2233 14.2816 83.4876 15.5715L90.7762 23.0147L38.6365 76.4408V110.536H114.753V76.4408L85.285 46.3592L99.5605 31.8873L131.363 64.5528C132.338 65.5128 133.066 66.5701 133.566 67.7627C134.061 68.9595 134.293 70.2282 134.293 71.5815H134.289Z" fill="#639E93"/>
<path d="M4.97887 234.141C1.78082 230.936 0.185933 226.732 0.185933 221.535V219.031C0.185933 218.709 0.293361 218.439 0.51648 218.215C0.735468 217.991 0.999906 217.876 1.31393 217.876H9.86684C10.1809 217.876 10.4453 217.991 10.6643 218.215C10.8833 218.439 10.9948 218.714 10.9948 219.031V220.955C10.9948 223.459 11.6063 225.476 12.8294 227.015C14.0524 228.555 15.6349 229.324 17.5768 229.324C19.5188 229.324 21.1178 228.601 22.3698 227.159C23.6217 225.717 24.2498 223.81 24.2498 221.433C24.2498 219.767 23.9027 218.32 23.2168 217.102C22.5268 215.884 21.5558 214.73 20.3039 213.639C19.0478 212.548 17.0438 210.979 14.2879 208.923C11.1518 206.614 8.63142 204.563 6.71837 202.766C4.80533 200.973 3.20631 198.807 1.92544 196.27C0.640435 193.737 0 190.802 0 187.465C0 182.141 1.56597 177.907 4.70204 174.765C7.83397 171.623 11.9699 170.05 17.11 170.05C22.25 170.05 26.5099 171.703 29.7079 175.006C32.906 178.309 34.5009 182.69 34.5009 188.142V190.451C34.5009 190.772 34.3893 191.043 34.1703 191.267C33.9513 191.491 33.6828 191.605 33.3729 191.605H24.9109C24.5968 191.605 24.3324 191.495 24.1134 191.267C23.8944 191.043 23.7829 190.772 23.7829 190.451V187.947C23.7829 185.443 23.1714 183.443 21.9483 181.933C20.7253 180.428 19.1098 179.671 17.1058 179.671C15.2258 179.671 13.6888 180.36 12.4988 181.739C11.3088 183.117 10.7139 185.029 10.7139 187.465C10.7139 189.774 11.3543 191.732 12.6393 193.335C13.9243 194.938 16.4447 197.154 20.2088 199.975C24.0308 202.863 26.9148 205.219 28.8568 207.046C30.7987 208.873 32.3027 210.881 33.3687 213.059C34.4348 215.242 34.9678 217.838 34.9678 220.854C34.9678 226.305 33.3687 230.686 30.1748 233.989C26.9768 237.292 22.7788 238.946 17.5768 238.946C12.3749 238.946 8.17691 237.343 4.97887 234.133V234.141Z" fill="#424242"/>
<path d="M76.5672 171.162C76.7861 171.386 76.8977 171.661 76.8977 171.978V179.29C76.8977 179.612 76.7861 179.882 76.5672 180.106C76.3482 180.33 76.0796 180.445 75.7697 180.445H63.8287C63.5147 180.445 63.3577 180.605 63.3577 180.927V237.026C63.3577 237.347 63.2461 237.618 63.0271 237.842C62.8081 238.066 62.5396 238.18 62.2297 238.18H53.5817C53.2677 238.18 53.0033 238.07 52.7843 237.842C52.5653 237.618 52.4537 237.347 52.4537 237.026V180.927C52.4537 180.605 52.2967 180.445 51.9827 180.445H40.7028C40.3888 180.445 40.1243 180.335 39.9053 180.106C39.6863 179.882 39.5748 179.612 39.5748 179.29V171.978C39.5748 171.657 39.6822 171.386 39.9053 171.162C40.1243 170.938 40.3888 170.823 40.7028 170.823H75.7697C76.0837 170.823 76.3482 170.938 76.5672 171.162Z" fill="#424242"/>
<path d="M105.473 237.123L103.689 227.02C103.689 226.698 103.498 226.538 103.122 226.538H89.3965C89.0205 226.538 88.8346 226.698 88.8346 227.02L87.0496 237.123C86.9876 237.829 86.5786 238.18 85.8266 238.18H77.2737C76.3936 238.18 76.0507 237.766 76.2407 236.928L90.1526 171.881C90.2766 171.175 90.6856 170.823 91.3757 170.823H101.342C102.032 170.823 102.437 171.179 102.565 171.881L116.477 236.928V237.313C116.477 237.888 116.13 238.18 115.444 238.18H106.701C105.949 238.18 105.54 237.829 105.478 237.123H105.473ZM90.9955 217.783H101.428C101.804 217.783 101.961 217.623 101.899 217.301L96.4454 186.894C96.3834 186.704 96.2884 186.606 96.1645 186.606C96.0405 186.606 95.9455 186.704 95.8835 186.894L90.5245 217.301C90.4625 217.623 90.6195 217.783 90.9955 217.783Z" fill="#424242"/>
<path d="M129.587 237.749C129.368 237.525 129.256 237.254 129.256 236.933V210.666L129.161 210.086L116.092 172.177C116.03 172.05 115.997 171.889 115.997 171.695C115.997 171.115 116.34 170.828 117.03 170.828H126.054C126.744 170.828 127.182 171.149 127.372 171.792L134.421 196.519C134.483 196.714 134.578 196.807 134.702 196.807C134.826 196.807 134.921 196.71 134.983 196.519L142.032 171.792C142.218 171.153 142.656 170.828 143.35 170.828H152.374C152.75 170.828 153.031 170.942 153.221 171.166C153.407 171.39 153.44 171.729 153.316 172.177L140.247 210.086L140.152 210.666V236.933C140.152 237.254 140.04 237.525 139.821 237.749C139.602 237.973 139.334 238.087 139.024 238.087H130.376C130.062 238.087 129.798 237.977 129.579 237.749H129.587Z" fill="#424242"/>
</svg>
